# xmcd
#
# Track frame offsets: 
#        150
#        19942
#        46925
#        71965
#        90737
#        113205
#        127875
#        143780
#        158795
#        186350
#        192687
#
# Disc length: 3145 seconds
#
# Revision: 0
# Processed by: cddbd v1.5.2PL0 Copyright (c) Steve Scherf et al.
# Submitted via: ExactAudioCopy v0.95b4
#
DISCID=a00c470b
DTITLE=Alexander O'Neal - My Gift To You
DYEAR=1989
DGENRE=Soul
TTITLE0=My Gift To You
TTITLE1=Sleigh Ride
TTITLE2=Our First Christmas
TTITLE3=Remember Why (It's Christmas)
TTITLE4=The Little Drummer Boy
TTITLE5=The Christmas Song
TTITLE6=This Christmas
TTITLE7=Winter Wonderland
TTITLE8=Thank You For A Good Year
TTITLE9=Remeber Why (Reprise)
TTITLE10=The Official Bootleg Mega-Mix (12inch Version)
EXTD=
EXTT0=
EXTT1=
EXTT2=
EXTT3=
EXTT4=
EXTT5=
EXTT6=
EXTT7=
EXTT8=
EXTT9=
EXTT10=
PLAYORDER=
